<svg width="147" height="120" viewBox="0 0 147 120" fill="none" xmlns="http://www.w3.org/2000/svg">
<path d="M132.169 59.7265C132.169 72.9542 127.74 85.3837 120.358 95.1904C116.27 100.55 111.387 105.225 105.708 108.874C96.623 114.918 85.6071 118.339 73.9098 118.339C41.7706 118.453 15.6504 92.2256 15.6504 59.7265C15.6504 27.3414 41.657 1 73.9098 1C85.6071 1 96.5094 4.42096 105.708 10.4647C111.387 14.1137 116.27 18.789 120.358 24.1485C127.74 34.0693 132.169 46.3847 132.169 59.7265Z" fill="#F1F3F9" stroke="#D6DCE8" stroke-width="2" stroke-miterlimit="10"/>
<path d="M29.5415 51.8743H28.8382C28.3107 51.8743 27.959 51.7102 27.959 51.464C27.959 51.2178 28.3107 51.0537 28.8382 51.0537H29.5415C30.069 51.0537 30.4206 51.2178 30.4206 51.464C30.4206 51.7102 30.069 51.8743 29.5415 51.8743Z" fill="#2D5887"/>
<path d="M29.5415 55.1565H28.8382C28.3107 55.1565 27.959 54.9924 27.959 54.7462C27.959 54.5 28.3107 54.3359 28.8382 54.3359H29.5415C30.069 54.3359 30.4206 54.5 30.4206 54.7462C30.4206 54.9924 30.069 55.1565 29.5415 55.1565Z" fill="#2D5887"/>
<path d="M29.5415 58.4387H28.8382C28.3107 58.4387 27.959 58.2746 27.959 58.0284C27.959 57.7823 28.3107 57.6182 28.8382 57.6182H29.5415C30.069 57.6182 30.4206 57.7823 30.4206 58.0284C30.4206 58.2746 30.069 58.4387 29.5415 58.4387Z" fill="#2D5887"/>
<path d="M29.5415 61.7209H28.8382C28.3107 61.7209 27.959 61.5568 27.959 61.3107C27.959 61.0645 28.3107 60.9004 28.8382 60.9004H29.5415C30.069 60.9004 30.4206 61.0645 30.4206 61.3107C30.4206 61.5568 30.069 61.7209 29.5415 61.7209Z" fill="#2D5887"/>
<path d="M61.6404 51.8743H50.0744C49.6056 51.8743 49.293 51.7102 49.293 51.464C49.293 51.2178 49.6056 51.0537 50.0744 51.0537H61.6404C62.1093 51.0537 62.4218 51.2178 62.4218 51.464C62.4218 51.7102 62.1093 51.8743 61.6404 51.8743Z" fill="white"/>
<path d="M86.2836 61.7209H50.0479C49.5949 61.7209 49.293 61.5568 49.293 61.3107C49.293 61.0645 49.5949 60.9004 50.0479 60.9004H86.2836C86.7365 60.9004 87.0385 61.0645 87.0385 61.3107C87.0385 61.5568 86.7365 61.7209 86.2836 61.7209Z" fill="url(#paint0_linear_3420_16404)"/>
<path d="M61.6847 55.1565H45.9258C45.484 55.1565 45.1895 54.9924 45.1895 54.7462C45.1895 54.5 45.484 54.3359 45.9258 54.3359H61.6847C62.1265 54.3359 62.4211 54.5 62.4211 54.7462C62.4211 54.9924 62.1265 55.1565 61.6847 55.1565Z" fill="#2D5887"/>
<path d="M73.9946 58.4387H45.9243C45.4834 58.4387 45.1895 58.2746 45.1895 58.0284C45.1895 57.7823 45.4834 57.6182 45.9243 57.6182H73.9946C74.4355 57.6182 74.7294 57.7823 74.7294 58.0284C74.5825 58.2746 74.2885 58.4387 73.9946 58.4387Z" fill="#2D5887"/>
<path d="M86.2395 58.4387H75.5297C75.0502 58.4387 74.7305 58.2746 74.7305 58.0284C74.7305 57.7823 75.0502 57.6182 75.5297 57.6182H86.2395C86.7191 57.6182 87.0388 57.7823 87.0388 58.0284C87.0388 58.2746 86.7191 58.4387 86.2395 58.4387Z" fill="white"/>
<path d="M92.8271 58.4387H88.6356C88.1699 58.4387 87.8594 58.2746 87.8594 58.0284C87.8594 57.7823 88.1699 57.6182 88.6356 57.6182H92.8271C93.2928 57.6182 93.6033 57.7823 93.6033 58.0284C93.6033 58.2746 93.2928 58.4387 92.8271 58.4387Z" fill="url(#paint1_linear_3420_16404)"/>
<path d="M2.52148 103.569H140.375" stroke="#D6DEE8" stroke-width="2" stroke-miterlimit="10" stroke-linecap="round" stroke-linejoin="round"/>
<path d="M99.3477 51.0537V103.569H24.8937C21.9567 103.569 19.7539 101.209 19.7539 98.4062V51.0537H99.3477Z" fill="white" stroke="#D6DCE8" stroke-width="2" stroke-miterlimit="10"/>
<path d="M128.888 51.0537V98.4062C128.888 101.356 126.439 103.569 123.531 103.569H99.3477V51.0537H128.888Z" fill="#DAE1ED"/>
<path d="M128.888 51.0537V98.4062C128.888 101.356 126.439 103.569 123.531 103.569H99.3477V51.0537H128.888Z" fill="#F1F3F9" stroke="#D6DCE8" stroke-width="2" stroke-miterlimit="10"/>
<path d="M48.4727 51.0541L64.1288 26.4375H144.478L128.378 51.0541H48.4727Z" fill="#C5CDDB"/>
<path d="M48.4727 51.0541L64.1288 26.4375H144.478L128.378 51.0541H48.4727Z" fill="#F1F3F9" stroke="#D6DCE8" stroke-width="2" stroke-miterlimit="10"/>
<path opacity="0.3" d="M128.888 51.1975V78.9526H107.348C105.348 78.9526 103.963 77.6583 103.656 75.7888L99.3477 51.0537L128.888 51.1975Z" fill="url(#paint2_linear_3420_16404)"/>
<path d="M128.269 51.0537H99.3477L114.033 73.3119C115.082 74.7859 116.73 75.6704 118.379 75.6704H140.856C142.355 75.6704 143.404 73.9015 142.504 72.7223L128.269 51.0537Z" fill="white" stroke="#D6DCE8" stroke-width="2" stroke-miterlimit="10"/>
<path d="M99.3469 51.0541L83.5812 26.4375H2.52148L18.8822 51.0541H99.3469Z" fill="white" stroke="#D6DCE8" stroke-width="2" stroke-miterlimit="10"/>
<path d="M59.4763 81.4148H28.4438C27.7187 81.4148 27.1387 80.8678 27.1387 80.184C27.1387 79.5002 27.7187 78.9531 28.4438 78.9531H59.4763C60.2014 78.9531 60.7814 79.5002 60.7814 80.184C60.6364 80.8678 60.2014 81.4148 59.4763 81.4148Z" fill="#DAE1ED"/>
<path d="M59.4763 87.1587H28.4438C27.7187 87.1587 27.1387 86.794 27.1387 86.3381C27.1387 85.8823 27.7187 85.5176 28.4438 85.5176H59.4763C60.2014 85.5176 60.7814 85.8823 60.7814 86.3381C60.6364 86.794 60.2014 87.1587 59.4763 87.1587Z" fill="#DAE1ED"/>
<path d="M43.0448 93.7231H28.4642C27.7278 93.7231 27.1387 93.3584 27.1387 92.9026C27.1387 92.4467 27.7278 92.082 28.4642 92.082H43.0448C43.7812 92.082 44.3703 92.4467 44.3703 92.9026C44.223 93.3584 43.6339 93.7231 43.0448 93.7231Z" fill="#DAE1ED"/>
<defs>
<linearGradient id="paint0_linear_3420_16404" x1="49.4625" y1="61.3273" x2="87.0823" y2="61.3273" gradientUnits="userSpaceOnUse">
<stop stop-color="#FF66A9"/>
<stop offset="1" stop-color="#F53689"/>
</linearGradient>
<linearGradient id="paint1_linear_3420_16404" x1="87.8977" y1="58.0033" x2="93.6022" y2="58.0033" gradientUnits="userSpaceOnUse">
<stop stop-color="#83A6FF"/>
<stop offset="1" stop-color="#5A78FF"/>
</linearGradient>
<linearGradient id="paint2_linear_3420_16404" x1="114.124" y1="79.5252" x2="114.124" y2="54.1127" gradientUnits="userSpaceOnUse">
<stop offset="0.00289017" stop-color="#606673" stop-opacity="0"/>
<stop offset="1" stop-color="#AAB2C5"/>
</linearGradient>
</defs>
</svg>
