<svg width="312" height="204" viewBox="0 0 312 204" fill="none" xmlns="http://www.w3.org/2000/svg">
<g clip-path="url(#clip0_3191_29176)">
<path d="M146.207 67.418H226.454C226.658 67.418 226.823 67.5828 226.823 67.786V114.287C226.823 114.49 226.658 114.655 226.454 114.655H146.207V67.418Z" fill="#E6E6E6"/>
<path d="M226.356 114.906L146.098 67.7739L146.309 67.0605L226.568 114.192C226.765 114.25 226.878 114.457 226.82 114.654C226.761 114.851 226.554 114.964 226.356 114.906Z" fill="white"/>
<path d="M146.309 115.012L146.098 114.298L226.356 67.1667C226.554 67.1085 226.761 67.221 226.82 67.418C226.878 67.615 226.765 67.8219 226.568 67.8801L146.309 115.012Z" fill="white"/>
<path d="M217.337 20.8984H155.597C154.632 20.8984 153.85 21.6781 153.85 22.6398V22.6398C153.85 23.6015 154.632 24.3811 155.597 24.3811H217.337C218.302 24.3811 219.084 23.6015 219.084 22.6398C219.084 21.6781 218.302 20.8984 217.337 20.8984Z" fill="#E6E6E6"/>
<path d="M225.636 31.7705H147.296C146.331 31.7705 145.549 32.5501 145.549 33.5118V33.5118C145.549 34.4736 146.331 35.2532 147.296 35.2532H225.636C226.601 35.2532 227.383 34.4736 227.383 33.5118C227.383 32.5501 226.601 31.7705 225.636 31.7705Z" fill="#E6E6E6"/>
<path d="M225.636 42.6396H147.296C146.331 42.6396 145.549 43.4193 145.549 44.381C145.549 45.3427 146.331 46.1223 147.296 46.1223H225.636C226.601 46.1223 227.383 45.3427 227.383 44.381C227.383 43.4193 226.601 42.6396 225.636 42.6396Z" fill="#FFC619"/>
<path d="M299.924 79.3381C299.918 92.7813 291.394 104.755 278.663 109.201C278.393 109.297 278.123 109.385 277.849 109.47C261.152 114.79 243.289 105.613 237.951 88.973C232.614 72.3331 241.822 54.5314 258.519 49.2118C275.216 43.8923 293.079 53.0692 298.417 69.709C299.416 72.8219 299.924 76.0701 299.924 79.3381Z" fill="#E6E6E6"/>
<path d="M225.625 46.8225C225.498 48.2886 226.587 49.5804 228.058 49.7077C228.215 49.7213 228.373 49.721 228.529 49.7069L232.438 58.3381L235.077 54.1791L230.961 46.6204C230.73 45.1587 229.354 44.1603 227.887 44.3904C226.66 44.5829 225.725 45.5884 225.625 46.8225Z" fill="#FFB6B6"/>
<path d="M264.143 79.3268C264.086 79.0717 264.013 78.8203 263.925 78.5741C263.365 76.9877 262.224 75.6708 260.731 74.8871C260.696 74.8666 260.658 74.8461 260.622 74.8285L242.767 65.7997L241.183 62.7218L234.783 50.2959L233.214 50.7616L229.505 51.8598L229.42 51.8832L235.568 72.5003L236.978 73.578L252.955 85.7549L253.476 86.1532C256.13 88.1724 259.867 87.9533 262.265 85.6378C262.504 85.4092 262.725 85.1625 262.926 84.8998C264.145 83.3155 264.591 81.2723 264.143 79.3268Z" fill="#FFC619"/>
<path d="M274.067 101.971L273.973 98.5739L273.703 88.7222C274.681 82.417 275.375 81.717 270.656 77.4062C270.291 77.3283 269.976 77.1007 269.789 76.7795C269.36 75.9068 270.391 74.4249 269.501 72.1436L262.474 72.5448L260.729 74.8876L253.706 84.3176C253.43 84.7838 253.179 85.2637 252.953 85.7555C249.947 92.2628 254.023 95.7214 254.34 96.3159L256.286 102.422L257.358 108.344L257.705 109.166L258.684 109.524C264.926 111.467 271.618 111.448 277.849 109.471C276.801 106.87 275.535 104.362 274.067 101.971Z" fill="#FFC619"/>
<path d="M287.678 125.92C288.279 124.575 287.673 123 286.324 122.401C286.18 122.337 286.031 122.286 285.878 122.248L285.011 112.818L281.154 115.891L282.569 124.375C282.308 125.831 283.281 127.223 284.743 127.482C285.966 127.7 287.179 127.054 287.678 125.92Z" fill="#FFB6B6"/>
<path d="M274.238 79.6815C273.219 78.1451 271.609 77.0952 269.789 76.7793C269.399 76.7089 269.004 76.6736 268.608 76.6738C267.287 76.674 265.996 77.0621 264.896 77.7896C264.547 78.0192 264.221 78.282 263.923 78.5745C261.253 81.1521 261.185 85.3992 263.771 88.0606L263.773 88.063L273.974 98.5736L277.691 102.404L278.664 109.201L280.159 119.659L281.793 119.73L285.66 119.899L285.749 119.902L286.392 105.248L286.692 98.4155L274.238 79.6815Z" fill="#FFC619"/>
<path d="M260.299 56.0689C257.815 60.9483 259.437 66.6003 264.047 69.5724C269.032 72.7863 275.504 72.0826 277.597 65.837C279.928 58.8818 278.013 55.8981 273.849 52.3335C268.968 48.1562 262.983 50.7968 260.299 56.0689Z" fill="#2F2E41"/>
<path d="M272.525 66.9383C269.89 70.38 264.955 71.0415 261.501 68.4159C258.052 65.7937 257.385 60.8835 260.01 57.4415L260.078 57.3522C262.789 53.9702 267.738 53.4189 271.132 56.1209C274.449 58.7615 275.064 63.5483 272.523 66.9369L272.525 66.9383Z" fill="#FFB6B6"/>
<path d="M257.891 55.2777C259.169 56.4898 260.727 57.3696 262.427 57.8394C262.768 57.4465 263.172 57.1128 263.623 56.852C263.407 57.2993 263.259 57.7761 263.184 58.2667C263.942 59.8351 267.039 60.9623 269.999 62.1153L273.92 55.2198L268.731 52.2893C264.561 49.4163 259.652 50.6425 257.891 55.2777Z" fill="#2F2E41"/>
<path d="M276.876 52.341C277.645 52.0586 278.506 52.1838 279.161 52.6735C279.793 53.1522 280.304 53.7713 280.653 54.4816C281.288 55.6309 281.744 56.8695 282.006 58.1551C282.229 59.2674 282.192 60.612 281.19 61.1924C280.355 61.6768 279.16 61.3718 278.392 60.7255C277.68 60.0473 277.14 59.2104 276.817 58.2836C276.442 57.3966 276.088 56.4769 275.422 55.7403L276.114 56.0622C275.895 55.4006 275.793 54.7061 275.813 54.0098C275.845 53.3047 276.25 52.6696 276.876 52.341Z" fill="#2F2E41"/>
<path d="M267.904 53.2451L273.472 56.389C276.607 58.1592 277.708 62.127 275.932 65.2513C273.357 69.779 267.749 71.6129 262.983 69.4862L268.07 65.0105L261.169 68.5148L259.695 67.6827C267.097 66.3415 268.525 60.5554 267.904 53.2451Z" fill="#2F2E41"/>
<path d="M278.422 58.7708C279.359 59.8579 280.826 60.2805 282.149 60.8462C286.891 62.9193 290.3 67.1917 291.259 72.2628C291.625 74.2973 291.577 76.4034 292.155 78.3868C292.73 80.3702 294.152 82.3161 296.194 82.6603C297.575 82.8955 298.96 82.3639 300.26 81.839C300.974 81.5528 301.689 81.2654 302.404 80.9768C301.658 79.1127 300.914 77.2485 300.171 75.3844C301.365 77.1437 302.754 78.7635 304.312 80.2135C306.873 79.1843 309.437 78.1551 312.003 77.1259C305.69 77.1497 306.767 71.0427 305.355 64.9153C304.579 61.5482 297.969 59.2683 296.672 56.0649C294.648 51.0425 288.922 48.6065 283.882 50.6238C281.71 51.4931 279.921 53.1058 278.836 55.172C277.54 55.6866 277.502 57.6973 278.422 58.7708Z" fill="#2F2E41"/>
<path d="M95.0414 117.761C93.8587 116.269 94.114 114.103 95.6117 112.924C95.7568 112.81 95.9108 112.708 96.0723 112.618L94.2695 95.5484L98.8846 93.8906L100.877 114.18C101.678 115.904 100.926 117.948 99.1963 118.746C97.7494 119.414 96.0317 119.007 95.0414 117.761Z" fill="#FFB6B6"/>
<path d="M92.5785 55.1787C92.5785 55.1787 100.071 58.8217 100.095 63.1044C100.119 67.3871 100.74 71.2607 100.153 72.9178C99.5672 74.5749 101.643 86.6198 100.671 87.8126C99.6996 89.0055 101.702 89.6159 100.65 91.6573C99.5976 93.6986 99.1317 94.0829 99.5173 94.5472C99.9029 95.0114 100.469 103.861 100.469 103.861L94.2958 104.63L87.7285 76.0679L92.5785 55.1787Z" fill="#3F3D56"/>
<path d="M56.9479 119.495C58.3521 118.207 58.4426 116.029 57.1501 114.629C57.0249 114.494 56.889 114.368 56.7436 114.255L61.2245 97.6815L56.9294 95.3193L51.7518 115.042C50.6882 116.618 51.1079 118.755 52.6892 119.815C54.0124 120.702 55.773 120.57 56.9479 119.495Z" fill="#FFB6B6"/>
<path d="M69.2872 58.083C69.2872 58.083 61.3125 60.5032 60.6109 64.7285C59.9093 68.9538 58.6836 72.6814 59.0004 74.4099C59.3172 76.1384 55.3613 87.7065 56.1323 89.0371C56.9033 90.3677 54.8295 90.6559 55.5455 92.837C56.2615 95.0182 56.6608 95.4708 56.2066 95.8687C55.7524 96.2666 53.793 104.916 53.793 104.916L59.7675 106.646L70.7716 79.4729L69.2872 58.083Z" fill="#3F3D56"/>
<path d="M99.9089 193.64L105.228 193.64L107.759 173.193L99.9082 173.194L99.9089 193.64Z" fill="#FFB6B6"/>
<path d="M107.002 194.118V190.524L105.604 190.61L99.9117 190.946L98.5943 191.026L97.5872 203.062L97.5332 203.707H101.31L101.431 203.066L101.98 200.154L103.396 203.066L103.707 203.707H113.72C114.96 203.699 115.962 202.698 115.968 201.462C116.39 199.495 108.063 195.243 107.002 194.118Z" fill="#2F2E41"/>
<path d="M37.5957 187.871L42.2221 190.487L54.5478 173.948L47.7199 170.088L37.5957 187.871Z" fill="#FFB6B6"/>
<path d="M43.5281 191.771L45.3041 188.647L44.0542 188.034L38.933 185.529L37.746 184.946L31.9143 193.455L30.543 195.454L32.0942 196.332L33.8252 197.313L36.1723 194.553L35.9115 198.492L44.0901 203.121H44.0946L44.6207 203.416C45.7023 204.025 47.0744 203.646 47.6871 202.569C49.0271 201.064 43.8923 193.276 43.5281 191.771Z" fill="#2F2E41"/>
<path d="M73.5172 93.2771C61.7282 93.6992 57.5851 141.6 61.1851 142.469L44.3848 173.672L68.2977 184.354L84.0208 129.947L86.6414 149.969L83.1473 181.743L98.6042 185.468L109.295 184.707C106.517 146.833 99.5811 106.888 93.8328 91.4365L73.5172 93.2771Z" fill="#2F2E41"/>
<path d="M68.1015 96.6339L68.0239 96.9247C75.5592 101.103 80.7047 100.209 88.9418 97.68L94.9551 96.4204C96.2675 94.7148 95.1979 93.0465 93.7437 91.4221L97.3486 61.8734C97.3244 58.0451 94.1906 54.9613 90.3492 54.9855C90.1913 54.9865 90.0336 54.9928 89.8762 55.0045L84.4611 51.0068L76.7523 51.2719L71.5958 56.9481L68.5152 58.0451L66.1216 58.8954C65.6378 59.3298 65.1096 59.8304 64.6035 60.3826L68.3896 82.8372L70.0001 89.5515C67.8413 92.0045 66.6518 94.399 68.1015 96.6339Z" fill="#3F3D56"/>
<path d="M24.3721 200C18.7627 199.334 13.7544 196.181 10.7424 191.418C8.80842 188.292 7.81049 184.58 6.84539 180.99C6.56439 179.946 6.27401 178.866 5.9665 177.824C5.25517 175.496 6.03661 172.971 7.94017 171.446C9.7804 169.909 12.374 169.642 14.4904 170.773L14.7163 170.892L15.112 179.755C15.6983 178.568 16.985 175.885 18.0044 173.207L18.0899 172.983L18.2852 173.123C20.3346 174.591 22.1905 176.309 23.8091 178.239C29.5934 185.247 31.9918 194.436 30.3669 203.364L30.3177 203.627L24.3721 200Z" fill="#F2F2F2"/>
<path d="M0.00195511 203.561C0.00123483 203.802 0.196859 203.998 0.438896 203.999H311.562C311.805 203.999 312.002 203.803 312.002 203.561C312.002 203.319 311.805 203.123 311.562 203.123H0.441515C0.199467 203.122 0.00267539 203.317 0.0019588 203.559L0.00195511 203.561Z" fill="#CCCCCC"/>
<path d="M91.5724 45.9673L91.58 45.9653C92.4195 45.7439 92.9199 44.8862 92.6978 44.0495L90.4581 35.5941C90.0584 34.0788 89.3569 32.6591 88.3956 31.4194C86.5155 29.0012 83.7716 27.3993 80.7357 26.9476C79.1688 26.7162 77.5711 26.8034 76.0389 27.2039C69.7705 28.8424 68.0197 30.9084 67.6659 41.4816C67.3121 52.0548 69.909 49.9499 69.909 49.9499C69.9627 50.1538 70.0571 50.3448 70.1866 50.5115C70.4397 50.8365 70.8092 51.0515 71.2176 51.1114C71.4271 51.142 71.6407 51.1303 71.8456 51.077C79.6734 50.274 87.6011 49.5427 91.5736 45.967L91.5724 45.9673Z" fill="#2F2E41"/>
<path d="M73.168 37.0402C72.0192 41.6613 74.847 46.3356 79.484 47.4804C81.7064 48.0291 84.0565 47.6773 86.019 46.5022C87.981 45.3357 89.3929 43.4351 89.9397 41.2244C91.0847 36.6023 88.253 31.9304 83.615 30.7894C81.3982 30.244 79.0548 30.5943 77.0961 31.7638C75.1315 32.9286 73.7168 34.8287 73.168 37.0402Z" fill="#FFB6B6"/>
<path d="M93.3322 35.574C93.016 34.3757 92.4612 33.2529 91.7009 32.2724C90.6208 29.589 88.9265 27.4201 85.6438 28.7368C84.4125 28.5555 83.1572 28.6228 81.9526 28.9348L80.2522 29.373C80.2331 29.3779 80.214 29.3829 80.1949 29.3879C75.2504 30.6919 72.3028 35.7435 73.6112 40.6711L73.6561 40.8405L77.2524 39.9099L77.5739 36.1772L78.724 39.5298L80.5817 39.0499L80.7436 37.1668L81.3238 38.857C84.8461 40.2208 88.9283 38.8678 93.3756 35.7441L93.3322 35.574Z" fill="#2F2E41"/>
<path d="M85.0811 47.3896C85.2098 47.6482 85.2631 47.9375 85.2349 48.2248C85.2214 48.3715 85.1874 48.5157 85.1338 48.653C85.0878 48.7701 85.0281 48.8814 84.9558 48.9845C84.7417 49.2892 84.4256 49.5078 84.0642 49.6012C84.0417 49.6069 84.019 49.6122 83.9963 49.617C83.9735 49.6219 83.9506 49.6263 83.9276 49.6301C83.9044 49.6342 83.8811 49.6376 83.8578 49.6404C83.8345 49.6432 83.8109 49.6455 83.7872 49.6475L82.4509 49.752L79.7044 46.4749L80.6116 49.8998L74.5391 50.3847L70.6895 35.8508L80.42 33.3408L80.2535 33.6821C79.7031 34.8249 79.4799 36.0969 79.6083 37.3581C79.7445 38.6338 80.0991 39.8768 80.6566 41.0332C81.2114 42.2058 81.8778 43.3226 82.6468 44.3682C83.3227 45.2959 84.0516 46.1841 84.83 47.0282C84.9302 47.1364 85.0148 47.2581 85.0811 47.3896Z" fill="#2F2E41"/>
</g>
<defs>
<clipPath id="clip0_3191_29176">
<rect width="312" height="232" fill="white" transform="translate(0 -28)"/>
</clipPath>
</defs>
</svg>
